%TF.GenerationSoftware,KiCad,Pcbnew,9.0.7-1.fc43*%
%TF.CreationDate,2026-02-19T19:52:45+02:00*%
%TF.ProjectId,Marcopad,4d617263-6f70-4616-942e-6b696361645f,rev?*%
%TF.SameCoordinates,Original*%
%TF.FileFunction,Soldermask,Top*%
%TF.FilePolarity,Negative*%
%FSLAX46Y46*%
G04 Gerber Fmt 4.6, Leading zero omitted, Abs format (unit mm)*
G04 Created by KiCad (PCBNEW 9.0.7-1.fc43) date 2026-02-19 19:52:45*
%MOMM*%
%LPD*%
G01*
G04 APERTURE LIST*
%ADD10C,1.700000*%
%ADD11C,4.000000*%
%ADD12C,2.200000*%
%ADD13R,1.700000X1.700000*%
%ADD14R,2.000000X2.000000*%
%ADD15C,2.000000*%
%ADD16R,3.200000X2.000000*%
%ADD17R,3.500000X1.700000*%
%ADD18O,3.600000X1.700000*%
%ADD19O,3.700000X1.700000*%
G04 APERTURE END LIST*
D10*
%TO.C,SW6*%
X97920000Y-63000000D03*
D11*
X103000000Y-63000000D03*
D10*
X108080000Y-63000000D03*
D12*
X105540000Y-57920000D03*
X99190000Y-60460000D03*
%TD*%
D10*
%TO.C,SW1*%
X116920000Y-63000000D03*
D11*
X122000000Y-63000000D03*
D10*
X127080000Y-63000000D03*
D12*
X124540000Y-57920000D03*
X118190000Y-60460000D03*
%TD*%
D10*
%TO.C,SW4*%
X135920000Y-82000000D03*
D11*
X141000000Y-82000000D03*
D10*
X146080000Y-82000000D03*
D12*
X143540000Y-76920000D03*
X137190000Y-79460000D03*
%TD*%
D13*
%TO.C,J1*%
X95000000Y-41690000D03*
D10*
X95000000Y-44230000D03*
X95000000Y-46770000D03*
X95000000Y-49310000D03*
%TD*%
%TO.C,SW5*%
X116920000Y-82000000D03*
D11*
X122000000Y-82000000D03*
D10*
X127080000Y-82000000D03*
D12*
X124540000Y-76920000D03*
X118190000Y-79460000D03*
%TD*%
D10*
%TO.C,SW2*%
X135920000Y-63000000D03*
D11*
X141000000Y-63000000D03*
D10*
X146080000Y-63000000D03*
D12*
X143540000Y-57920000D03*
X137190000Y-60460000D03*
%TD*%
D14*
%TO.C,SW10*%
X96250000Y-77000000D03*
D15*
X96250000Y-82000000D03*
X96250000Y-79500000D03*
D16*
X103750000Y-73900000D03*
X103750000Y-85100000D03*
D15*
X110750000Y-82000000D03*
X110750000Y-77000000D03*
%TD*%
D17*
%TO.C,U1*%
X149625000Y-55380000D03*
D18*
X149625000Y-57920000D03*
X149625000Y-60460000D03*
X149625000Y-63000000D03*
X149625000Y-65540000D03*
X149625000Y-68080000D03*
X149625000Y-70620000D03*
X132375000Y-70620000D03*
X132375000Y-68080000D03*
X132375000Y-65540000D03*
D19*
X132375000Y-63000000D03*
X132375000Y-60460000D03*
X132375000Y-57920000D03*
X132375000Y-55380000D03*
%TD*%
M02*
