M48
; DRILL file {KiCad 9.0.7-1.fc43} date 2026-02-19T19:52:58+0200
; FORMAT={-:-/ absolute / metric / decimal}
; #@! TF.CreationDate,2026-02-19T19:52:58+02:00
; #@! TF.GenerationSoftware,Kicad,Pcbnew,9.0.7-1.fc43
; #@! TF.FileFunction,Plated,1,2,PTH
FMAT,2
METRIC
; #@! TA.AperFunction,Plated,PTH,ViaDrill
T1C0.300
; #@! TA.AperFunction,Plated,PTH,ComponentDrill
T2C1.000
; #@! TA.AperFunction,Plated,PTH,ComponentDrill
T3C1.500
%
G90
G05
T1
X119.685Y-46.77
X129.5Y-57.0
X135.5Y-71.0
X138.5Y-65.5
X141.5Y-57.0
X146.0Y-68.5
T2
X95.0Y-41.69
X95.0Y-44.23
X95.0Y-46.77
X95.0Y-49.31
X96.25Y-77.0
X96.25Y-79.5
X96.25Y-82.0
X110.75Y-77.0
X110.75Y-82.0
X133.375Y-55.38
X133.375Y-57.92
X133.375Y-60.46
X133.375Y-63.0
X133.375Y-65.54
X133.375Y-68.08
X133.375Y-70.62
X148.625Y-55.38
X148.625Y-57.92
X148.625Y-60.46
X148.625Y-63.0
X148.625Y-65.54
X148.625Y-68.08
X148.625Y-70.62
T3
X99.19Y-60.46
X105.54Y-57.92
X118.19Y-60.46
X118.19Y-79.46
X124.54Y-57.92
X124.54Y-76.92
X137.19Y-60.46
X137.19Y-79.46
X143.54Y-57.92
X143.54Y-76.92
T3
G00X103.1Y-73.9
M15
G01X104.4Y-73.9
M16
G05
G00X103.1Y-85.1
M15
G01X104.4Y-85.1
M16
G05
M30
