%TF.GenerationSoftware,KiCad,Pcbnew,9.0.7-1.fc43*%
%TF.CreationDate,2026-02-19T19:52:45+02:00*%
%TF.ProjectId,Marcopad,4d617263-6f70-4616-942e-6b696361645f,rev?*%
%TF.SameCoordinates,Original*%
%TF.FileFunction,Legend,Bot*%
%TF.FilePolarity,Positive*%
%FSLAX46Y46*%
G04 Gerber Fmt 4.6, Leading zero omitted, Abs format (unit mm)*
G04 Created by KiCad (PCBNEW 9.0.7-1.fc43) date 2026-02-19 19:52:45*
%MOMM*%
%LPD*%
G01*
G04 APERTURE LIST*
%ADD10C,0.101600*%
%ADD11C,0.150000*%
%ADD12C,0.127000*%
%ADD13C,0.120000*%
%ADD14C,0.254000*%
%ADD15C,0.025400*%
G04 APERTURE END LIST*
D10*
X141677333Y-65056985D02*
X141677333Y-65776652D01*
X141677333Y-65776652D02*
X141635000Y-65861318D01*
X141635000Y-65861318D02*
X141592666Y-65903652D01*
X141592666Y-65903652D02*
X141508000Y-65945985D01*
X141508000Y-65945985D02*
X141338666Y-65945985D01*
X141338666Y-65945985D02*
X141254000Y-65903652D01*
X141254000Y-65903652D02*
X141211666Y-65861318D01*
X141211666Y-65861318D02*
X141169333Y-65776652D01*
X141169333Y-65776652D02*
X141169333Y-65056985D01*
X140280333Y-65945985D02*
X140788333Y-65945985D01*
X140534333Y-65945985D02*
X140534333Y-65056985D01*
X140534333Y-65056985D02*
X140619000Y-65183985D01*
X140619000Y-65183985D02*
X140703667Y-65268652D01*
X140703667Y-65268652D02*
X140788333Y-65310985D01*
D11*
X145761904Y-61907200D02*
X145619047Y-61954819D01*
X145619047Y-61954819D02*
X145380952Y-61954819D01*
X145380952Y-61954819D02*
X145285714Y-61907200D01*
X145285714Y-61907200D02*
X145238095Y-61859580D01*
X145238095Y-61859580D02*
X145190476Y-61764342D01*
X145190476Y-61764342D02*
X145190476Y-61669104D01*
X145190476Y-61669104D02*
X145238095Y-61573866D01*
X145238095Y-61573866D02*
X145285714Y-61526247D01*
X145285714Y-61526247D02*
X145380952Y-61478628D01*
X145380952Y-61478628D02*
X145571428Y-61431009D01*
X145571428Y-61431009D02*
X145666666Y-61383390D01*
X145666666Y-61383390D02*
X145714285Y-61335771D01*
X145714285Y-61335771D02*
X145761904Y-61240533D01*
X145761904Y-61240533D02*
X145761904Y-61145295D01*
X145761904Y-61145295D02*
X145714285Y-61050057D01*
X145714285Y-61050057D02*
X145666666Y-61002438D01*
X145666666Y-61002438D02*
X145571428Y-60954819D01*
X145571428Y-60954819D02*
X145333333Y-60954819D01*
X145333333Y-60954819D02*
X145190476Y-61002438D01*
X144380952Y-61907200D02*
X144476190Y-61954819D01*
X144476190Y-61954819D02*
X144666666Y-61954819D01*
X144666666Y-61954819D02*
X144761904Y-61907200D01*
X144761904Y-61907200D02*
X144809523Y-61811961D01*
X144809523Y-61811961D02*
X144809523Y-61431009D01*
X144809523Y-61431009D02*
X144761904Y-61335771D01*
X144761904Y-61335771D02*
X144666666Y-61288152D01*
X144666666Y-61288152D02*
X144476190Y-61288152D01*
X144476190Y-61288152D02*
X144380952Y-61335771D01*
X144380952Y-61335771D02*
X144333333Y-61431009D01*
X144333333Y-61431009D02*
X144333333Y-61526247D01*
X144333333Y-61526247D02*
X144809523Y-61621485D01*
X143523809Y-61907200D02*
X143619047Y-61954819D01*
X143619047Y-61954819D02*
X143809523Y-61954819D01*
X143809523Y-61954819D02*
X143904761Y-61907200D01*
X143904761Y-61907200D02*
X143952380Y-61811961D01*
X143952380Y-61811961D02*
X143952380Y-61431009D01*
X143952380Y-61431009D02*
X143904761Y-61335771D01*
X143904761Y-61335771D02*
X143809523Y-61288152D01*
X143809523Y-61288152D02*
X143619047Y-61288152D01*
X143619047Y-61288152D02*
X143523809Y-61335771D01*
X143523809Y-61335771D02*
X143476190Y-61431009D01*
X143476190Y-61431009D02*
X143476190Y-61526247D01*
X143476190Y-61526247D02*
X143952380Y-61621485D01*
X142666666Y-61907200D02*
X142761904Y-61954819D01*
X142761904Y-61954819D02*
X142952380Y-61954819D01*
X142952380Y-61954819D02*
X143047618Y-61907200D01*
X143047618Y-61907200D02*
X143095237Y-61811961D01*
X143095237Y-61811961D02*
X143095237Y-61431009D01*
X143095237Y-61431009D02*
X143047618Y-61335771D01*
X143047618Y-61335771D02*
X142952380Y-61288152D01*
X142952380Y-61288152D02*
X142761904Y-61288152D01*
X142761904Y-61288152D02*
X142666666Y-61335771D01*
X142666666Y-61335771D02*
X142619047Y-61431009D01*
X142619047Y-61431009D02*
X142619047Y-61526247D01*
X142619047Y-61526247D02*
X143095237Y-61621485D01*
X141761904Y-61954819D02*
X141761904Y-60954819D01*
X141761904Y-61907200D02*
X141857142Y-61954819D01*
X141857142Y-61954819D02*
X142047618Y-61954819D01*
X142047618Y-61954819D02*
X142142856Y-61907200D01*
X142142856Y-61907200D02*
X142190475Y-61859580D01*
X142190475Y-61859580D02*
X142238094Y-61764342D01*
X142238094Y-61764342D02*
X142238094Y-61478628D01*
X142238094Y-61478628D02*
X142190475Y-61383390D01*
X142190475Y-61383390D02*
X142142856Y-61335771D01*
X142142856Y-61335771D02*
X142047618Y-61288152D01*
X142047618Y-61288152D02*
X141857142Y-61288152D01*
X141857142Y-61288152D02*
X141761904Y-61335771D01*
X140571427Y-61907200D02*
X140428570Y-61954819D01*
X140428570Y-61954819D02*
X140190475Y-61954819D01*
X140190475Y-61954819D02*
X140095237Y-61907200D01*
X140095237Y-61907200D02*
X140047618Y-61859580D01*
X140047618Y-61859580D02*
X139999999Y-61764342D01*
X139999999Y-61764342D02*
X139999999Y-61669104D01*
X139999999Y-61669104D02*
X140047618Y-61573866D01*
X140047618Y-61573866D02*
X140095237Y-61526247D01*
X140095237Y-61526247D02*
X140190475Y-61478628D01*
X140190475Y-61478628D02*
X140380951Y-61431009D01*
X140380951Y-61431009D02*
X140476189Y-61383390D01*
X140476189Y-61383390D02*
X140523808Y-61335771D01*
X140523808Y-61335771D02*
X140571427Y-61240533D01*
X140571427Y-61240533D02*
X140571427Y-61145295D01*
X140571427Y-61145295D02*
X140523808Y-61050057D01*
X140523808Y-61050057D02*
X140476189Y-61002438D01*
X140476189Y-61002438D02*
X140380951Y-60954819D01*
X140380951Y-60954819D02*
X140142856Y-60954819D01*
X140142856Y-60954819D02*
X139999999Y-61002438D01*
X139714284Y-61288152D02*
X139333332Y-61288152D01*
X139571427Y-60954819D02*
X139571427Y-61811961D01*
X139571427Y-61811961D02*
X139523808Y-61907200D01*
X139523808Y-61907200D02*
X139428570Y-61954819D01*
X139428570Y-61954819D02*
X139333332Y-61954819D01*
X138571427Y-61288152D02*
X138571427Y-61954819D01*
X138999998Y-61288152D02*
X138999998Y-61811961D01*
X138999998Y-61811961D02*
X138952379Y-61907200D01*
X138952379Y-61907200D02*
X138857141Y-61954819D01*
X138857141Y-61954819D02*
X138714284Y-61954819D01*
X138714284Y-61954819D02*
X138619046Y-61907200D01*
X138619046Y-61907200D02*
X138571427Y-61859580D01*
X137666665Y-61954819D02*
X137666665Y-60954819D01*
X137666665Y-61907200D02*
X137761903Y-61954819D01*
X137761903Y-61954819D02*
X137952379Y-61954819D01*
X137952379Y-61954819D02*
X138047617Y-61907200D01*
X138047617Y-61907200D02*
X138095236Y-61859580D01*
X138095236Y-61859580D02*
X138142855Y-61764342D01*
X138142855Y-61764342D02*
X138142855Y-61478628D01*
X138142855Y-61478628D02*
X138095236Y-61383390D01*
X138095236Y-61383390D02*
X138047617Y-61335771D01*
X138047617Y-61335771D02*
X137952379Y-61288152D01*
X137952379Y-61288152D02*
X137761903Y-61288152D01*
X137761903Y-61288152D02*
X137666665Y-61335771D01*
X137190474Y-61954819D02*
X137190474Y-61288152D01*
X137190474Y-60954819D02*
X137238093Y-61002438D01*
X137238093Y-61002438D02*
X137190474Y-61050057D01*
X137190474Y-61050057D02*
X137142855Y-61002438D01*
X137142855Y-61002438D02*
X137190474Y-60954819D01*
X137190474Y-60954819D02*
X137190474Y-61050057D01*
X136571427Y-61954819D02*
X136666665Y-61907200D01*
X136666665Y-61907200D02*
X136714284Y-61859580D01*
X136714284Y-61859580D02*
X136761903Y-61764342D01*
X136761903Y-61764342D02*
X136761903Y-61478628D01*
X136761903Y-61478628D02*
X136714284Y-61383390D01*
X136714284Y-61383390D02*
X136666665Y-61335771D01*
X136666665Y-61335771D02*
X136571427Y-61288152D01*
X136571427Y-61288152D02*
X136428570Y-61288152D01*
X136428570Y-61288152D02*
X136333332Y-61335771D01*
X136333332Y-61335771D02*
X136285713Y-61383390D01*
X136285713Y-61383390D02*
X136238094Y-61478628D01*
X136238094Y-61478628D02*
X136238094Y-61764342D01*
X136238094Y-61764342D02*
X136285713Y-61859580D01*
X136285713Y-61859580D02*
X136333332Y-61907200D01*
X136333332Y-61907200D02*
X136428570Y-61954819D01*
X136428570Y-61954819D02*
X136571427Y-61954819D01*
X142523808Y-62954819D02*
X141857142Y-63954819D01*
X141857142Y-62954819D02*
X142523808Y-63954819D01*
X141476189Y-63954819D02*
X141476189Y-62954819D01*
X141047618Y-63669104D02*
X140571428Y-63669104D01*
X141142856Y-63954819D02*
X140809523Y-62954819D01*
X140809523Y-62954819D02*
X140476190Y-63954819D01*
X139952380Y-62954819D02*
X139761904Y-62954819D01*
X139761904Y-62954819D02*
X139666666Y-63002438D01*
X139666666Y-63002438D02*
X139571428Y-63097676D01*
X139571428Y-63097676D02*
X139523809Y-63288152D01*
X139523809Y-63288152D02*
X139523809Y-63621485D01*
X139523809Y-63621485D02*
X139571428Y-63811961D01*
X139571428Y-63811961D02*
X139666666Y-63907200D01*
X139666666Y-63907200D02*
X139761904Y-63954819D01*
X139761904Y-63954819D02*
X139952380Y-63954819D01*
X139952380Y-63954819D02*
X140047618Y-63907200D01*
X140047618Y-63907200D02*
X140142856Y-63811961D01*
X140142856Y-63811961D02*
X140190475Y-63621485D01*
X140190475Y-63621485D02*
X140190475Y-63288152D01*
X140190475Y-63288152D02*
X140142856Y-63097676D01*
X140142856Y-63097676D02*
X140047618Y-63002438D01*
X140047618Y-63002438D02*
X139952380Y-62954819D01*
D12*
%TO.C,U1*%
X132100000Y-71500000D02*
X132100000Y-54500000D01*
X134100000Y-52500910D02*
X147900000Y-52500910D01*
X136500000Y-51075970D02*
X136500000Y-58429270D01*
X136500000Y-58429270D02*
X145500000Y-58429270D01*
X145500000Y-51075970D02*
X136500000Y-51075970D01*
X145500000Y-58429270D02*
X145500000Y-51075970D01*
X147900000Y-73500000D02*
X134100000Y-73500000D01*
X149900000Y-54500000D02*
X149900000Y-71500000D01*
D13*
X132100000Y-54500000D02*
G75*
G02*
X134100000Y-52500000I2044610J-44610D01*
G01*
X134100000Y-73500000D02*
G75*
G02*
X132100000Y-71500000I0J2000000D01*
G01*
X147900000Y-52500000D02*
G75*
G02*
X149900000Y-54500000I-44612J-2044612D01*
G01*
X149900000Y-71500000D02*
G75*
G02*
X147900000Y-73500000I-2044857J44857D01*
G01*
D14*
X152127000Y-54200000D02*
G75*
G02*
X151873000Y-54200000I-127000J0D01*
G01*
X151873000Y-54200000D02*
G75*
G02*
X152127000Y-54200000I127000J0D01*
G01*
D15*
X149884667Y-54389527D02*
X149887715Y-54438295D01*
X149880603Y-54340506D01*
X149884667Y-54389527D01*
X132157752Y-71910955D02*
X132147847Y-71862950D01*
X132138956Y-71814690D01*
X132131336Y-71766175D01*
X132124732Y-71717407D01*
X132119399Y-71668639D01*
X132115335Y-71619618D01*
X132112287Y-71570850D01*
X132110508Y-71521574D01*
X132157752Y-71910955D01*
%TD*%
M02*
