%TF.GenerationSoftware,KiCad,Pcbnew,9.0.7-1.fc43*%
%TF.CreationDate,2026-02-19T19:52:45+02:00*%
%TF.ProjectId,Marcopad,4d617263-6f70-4616-942e-6b696361645f,rev?*%
%TF.SameCoordinates,Original*%
%TF.FileFunction,Legend,Top*%
%TF.FilePolarity,Positive*%
%FSLAX46Y46*%
G04 Gerber Fmt 4.6, Leading zero omitted, Abs format (unit mm)*
G04 Created by KiCad (PCBNEW 9.0.7-1.fc43) date 2026-02-19 19:52:45*
%MOMM*%
%LPD*%
G01*
G04 APERTURE LIST*
%ADD10C,0.150000*%
%ADD11C,0.120000*%
G04 APERTURE END LIST*
D10*
X101666667Y-55533200D02*
X101809524Y-55580819D01*
X101809524Y-55580819D02*
X102047619Y-55580819D01*
X102047619Y-55580819D02*
X102142857Y-55533200D01*
X102142857Y-55533200D02*
X102190476Y-55485580D01*
X102190476Y-55485580D02*
X102238095Y-55390342D01*
X102238095Y-55390342D02*
X102238095Y-55295104D01*
X102238095Y-55295104D02*
X102190476Y-55199866D01*
X102190476Y-55199866D02*
X102142857Y-55152247D01*
X102142857Y-55152247D02*
X102047619Y-55104628D01*
X102047619Y-55104628D02*
X101857143Y-55057009D01*
X101857143Y-55057009D02*
X101761905Y-55009390D01*
X101761905Y-55009390D02*
X101714286Y-54961771D01*
X101714286Y-54961771D02*
X101666667Y-54866533D01*
X101666667Y-54866533D02*
X101666667Y-54771295D01*
X101666667Y-54771295D02*
X101714286Y-54676057D01*
X101714286Y-54676057D02*
X101761905Y-54628438D01*
X101761905Y-54628438D02*
X101857143Y-54580819D01*
X101857143Y-54580819D02*
X102095238Y-54580819D01*
X102095238Y-54580819D02*
X102238095Y-54628438D01*
X102571429Y-54580819D02*
X102809524Y-55580819D01*
X102809524Y-55580819D02*
X103000000Y-54866533D01*
X103000000Y-54866533D02*
X103190476Y-55580819D01*
X103190476Y-55580819D02*
X103428572Y-54580819D01*
X104238095Y-54580819D02*
X104047619Y-54580819D01*
X104047619Y-54580819D02*
X103952381Y-54628438D01*
X103952381Y-54628438D02*
X103904762Y-54676057D01*
X103904762Y-54676057D02*
X103809524Y-54818914D01*
X103809524Y-54818914D02*
X103761905Y-55009390D01*
X103761905Y-55009390D02*
X103761905Y-55390342D01*
X103761905Y-55390342D02*
X103809524Y-55485580D01*
X103809524Y-55485580D02*
X103857143Y-55533200D01*
X103857143Y-55533200D02*
X103952381Y-55580819D01*
X103952381Y-55580819D02*
X104142857Y-55580819D01*
X104142857Y-55580819D02*
X104238095Y-55533200D01*
X104238095Y-55533200D02*
X104285714Y-55485580D01*
X104285714Y-55485580D02*
X104333333Y-55390342D01*
X104333333Y-55390342D02*
X104333333Y-55152247D01*
X104333333Y-55152247D02*
X104285714Y-55057009D01*
X104285714Y-55057009D02*
X104238095Y-55009390D01*
X104238095Y-55009390D02*
X104142857Y-54961771D01*
X104142857Y-54961771D02*
X103952381Y-54961771D01*
X103952381Y-54961771D02*
X103857143Y-55009390D01*
X103857143Y-55009390D02*
X103809524Y-55057009D01*
X103809524Y-55057009D02*
X103761905Y-55152247D01*
X120666667Y-55533200D02*
X120809524Y-55580819D01*
X120809524Y-55580819D02*
X121047619Y-55580819D01*
X121047619Y-55580819D02*
X121142857Y-55533200D01*
X121142857Y-55533200D02*
X121190476Y-55485580D01*
X121190476Y-55485580D02*
X121238095Y-55390342D01*
X121238095Y-55390342D02*
X121238095Y-55295104D01*
X121238095Y-55295104D02*
X121190476Y-55199866D01*
X121190476Y-55199866D02*
X121142857Y-55152247D01*
X121142857Y-55152247D02*
X121047619Y-55104628D01*
X121047619Y-55104628D02*
X120857143Y-55057009D01*
X120857143Y-55057009D02*
X120761905Y-55009390D01*
X120761905Y-55009390D02*
X120714286Y-54961771D01*
X120714286Y-54961771D02*
X120666667Y-54866533D01*
X120666667Y-54866533D02*
X120666667Y-54771295D01*
X120666667Y-54771295D02*
X120714286Y-54676057D01*
X120714286Y-54676057D02*
X120761905Y-54628438D01*
X120761905Y-54628438D02*
X120857143Y-54580819D01*
X120857143Y-54580819D02*
X121095238Y-54580819D01*
X121095238Y-54580819D02*
X121238095Y-54628438D01*
X121571429Y-54580819D02*
X121809524Y-55580819D01*
X121809524Y-55580819D02*
X122000000Y-54866533D01*
X122000000Y-54866533D02*
X122190476Y-55580819D01*
X122190476Y-55580819D02*
X122428572Y-54580819D01*
X123333333Y-55580819D02*
X122761905Y-55580819D01*
X123047619Y-55580819D02*
X123047619Y-54580819D01*
X123047619Y-54580819D02*
X122952381Y-54723676D01*
X122952381Y-54723676D02*
X122857143Y-54818914D01*
X122857143Y-54818914D02*
X122761905Y-54866533D01*
X139666667Y-74533200D02*
X139809524Y-74580819D01*
X139809524Y-74580819D02*
X140047619Y-74580819D01*
X140047619Y-74580819D02*
X140142857Y-74533200D01*
X140142857Y-74533200D02*
X140190476Y-74485580D01*
X140190476Y-74485580D02*
X140238095Y-74390342D01*
X140238095Y-74390342D02*
X140238095Y-74295104D01*
X140238095Y-74295104D02*
X140190476Y-74199866D01*
X140190476Y-74199866D02*
X140142857Y-74152247D01*
X140142857Y-74152247D02*
X140047619Y-74104628D01*
X140047619Y-74104628D02*
X139857143Y-74057009D01*
X139857143Y-74057009D02*
X139761905Y-74009390D01*
X139761905Y-74009390D02*
X139714286Y-73961771D01*
X139714286Y-73961771D02*
X139666667Y-73866533D01*
X139666667Y-73866533D02*
X139666667Y-73771295D01*
X139666667Y-73771295D02*
X139714286Y-73676057D01*
X139714286Y-73676057D02*
X139761905Y-73628438D01*
X139761905Y-73628438D02*
X139857143Y-73580819D01*
X139857143Y-73580819D02*
X140095238Y-73580819D01*
X140095238Y-73580819D02*
X140238095Y-73628438D01*
X140571429Y-73580819D02*
X140809524Y-74580819D01*
X140809524Y-74580819D02*
X141000000Y-73866533D01*
X141000000Y-73866533D02*
X141190476Y-74580819D01*
X141190476Y-74580819D02*
X141428572Y-73580819D01*
X142238095Y-73914152D02*
X142238095Y-74580819D01*
X142000000Y-73533200D02*
X141761905Y-74247485D01*
X141761905Y-74247485D02*
X142380952Y-74247485D01*
X94666666Y-38764819D02*
X94666666Y-39479104D01*
X94666666Y-39479104D02*
X94619047Y-39621961D01*
X94619047Y-39621961D02*
X94523809Y-39717200D01*
X94523809Y-39717200D02*
X94380952Y-39764819D01*
X94380952Y-39764819D02*
X94285714Y-39764819D01*
X95666666Y-39764819D02*
X95095238Y-39764819D01*
X95380952Y-39764819D02*
X95380952Y-38764819D01*
X95380952Y-38764819D02*
X95285714Y-38907676D01*
X95285714Y-38907676D02*
X95190476Y-39002914D01*
X95190476Y-39002914D02*
X95095238Y-39050533D01*
X120666667Y-74533200D02*
X120809524Y-74580819D01*
X120809524Y-74580819D02*
X121047619Y-74580819D01*
X121047619Y-74580819D02*
X121142857Y-74533200D01*
X121142857Y-74533200D02*
X121190476Y-74485580D01*
X121190476Y-74485580D02*
X121238095Y-74390342D01*
X121238095Y-74390342D02*
X121238095Y-74295104D01*
X121238095Y-74295104D02*
X121190476Y-74199866D01*
X121190476Y-74199866D02*
X121142857Y-74152247D01*
X121142857Y-74152247D02*
X121047619Y-74104628D01*
X121047619Y-74104628D02*
X120857143Y-74057009D01*
X120857143Y-74057009D02*
X120761905Y-74009390D01*
X120761905Y-74009390D02*
X120714286Y-73961771D01*
X120714286Y-73961771D02*
X120666667Y-73866533D01*
X120666667Y-73866533D02*
X120666667Y-73771295D01*
X120666667Y-73771295D02*
X120714286Y-73676057D01*
X120714286Y-73676057D02*
X120761905Y-73628438D01*
X120761905Y-73628438D02*
X120857143Y-73580819D01*
X120857143Y-73580819D02*
X121095238Y-73580819D01*
X121095238Y-73580819D02*
X121238095Y-73628438D01*
X121571429Y-73580819D02*
X121809524Y-74580819D01*
X121809524Y-74580819D02*
X122000000Y-73866533D01*
X122000000Y-73866533D02*
X122190476Y-74580819D01*
X122190476Y-74580819D02*
X122428572Y-73580819D01*
X123285714Y-73580819D02*
X122809524Y-73580819D01*
X122809524Y-73580819D02*
X122761905Y-74057009D01*
X122761905Y-74057009D02*
X122809524Y-74009390D01*
X122809524Y-74009390D02*
X122904762Y-73961771D01*
X122904762Y-73961771D02*
X123142857Y-73961771D01*
X123142857Y-73961771D02*
X123238095Y-74009390D01*
X123238095Y-74009390D02*
X123285714Y-74057009D01*
X123285714Y-74057009D02*
X123333333Y-74152247D01*
X123333333Y-74152247D02*
X123333333Y-74390342D01*
X123333333Y-74390342D02*
X123285714Y-74485580D01*
X123285714Y-74485580D02*
X123238095Y-74533200D01*
X123238095Y-74533200D02*
X123142857Y-74580819D01*
X123142857Y-74580819D02*
X122904762Y-74580819D01*
X122904762Y-74580819D02*
X122809524Y-74533200D01*
X122809524Y-74533200D02*
X122761905Y-74485580D01*
X139666667Y-55533200D02*
X139809524Y-55580819D01*
X139809524Y-55580819D02*
X140047619Y-55580819D01*
X140047619Y-55580819D02*
X140142857Y-55533200D01*
X140142857Y-55533200D02*
X140190476Y-55485580D01*
X140190476Y-55485580D02*
X140238095Y-55390342D01*
X140238095Y-55390342D02*
X140238095Y-55295104D01*
X140238095Y-55295104D02*
X140190476Y-55199866D01*
X140190476Y-55199866D02*
X140142857Y-55152247D01*
X140142857Y-55152247D02*
X140047619Y-55104628D01*
X140047619Y-55104628D02*
X139857143Y-55057009D01*
X139857143Y-55057009D02*
X139761905Y-55009390D01*
X139761905Y-55009390D02*
X139714286Y-54961771D01*
X139714286Y-54961771D02*
X139666667Y-54866533D01*
X139666667Y-54866533D02*
X139666667Y-54771295D01*
X139666667Y-54771295D02*
X139714286Y-54676057D01*
X139714286Y-54676057D02*
X139761905Y-54628438D01*
X139761905Y-54628438D02*
X139857143Y-54580819D01*
X139857143Y-54580819D02*
X140095238Y-54580819D01*
X140095238Y-54580819D02*
X140238095Y-54628438D01*
X140571429Y-54580819D02*
X140809524Y-55580819D01*
X140809524Y-55580819D02*
X141000000Y-54866533D01*
X141000000Y-54866533D02*
X141190476Y-55580819D01*
X141190476Y-55580819D02*
X141428572Y-54580819D01*
X141761905Y-54676057D02*
X141809524Y-54628438D01*
X141809524Y-54628438D02*
X141904762Y-54580819D01*
X141904762Y-54580819D02*
X142142857Y-54580819D01*
X142142857Y-54580819D02*
X142238095Y-54628438D01*
X142238095Y-54628438D02*
X142285714Y-54676057D01*
X142285714Y-54676057D02*
X142333333Y-54771295D01*
X142333333Y-54771295D02*
X142333333Y-54866533D01*
X142333333Y-54866533D02*
X142285714Y-55009390D01*
X142285714Y-55009390D02*
X141714286Y-55580819D01*
X141714286Y-55580819D02*
X142333333Y-55580819D01*
X97240476Y-72707200D02*
X97383333Y-72754819D01*
X97383333Y-72754819D02*
X97621428Y-72754819D01*
X97621428Y-72754819D02*
X97716666Y-72707200D01*
X97716666Y-72707200D02*
X97764285Y-72659580D01*
X97764285Y-72659580D02*
X97811904Y-72564342D01*
X97811904Y-72564342D02*
X97811904Y-72469104D01*
X97811904Y-72469104D02*
X97764285Y-72373866D01*
X97764285Y-72373866D02*
X97716666Y-72326247D01*
X97716666Y-72326247D02*
X97621428Y-72278628D01*
X97621428Y-72278628D02*
X97430952Y-72231009D01*
X97430952Y-72231009D02*
X97335714Y-72183390D01*
X97335714Y-72183390D02*
X97288095Y-72135771D01*
X97288095Y-72135771D02*
X97240476Y-72040533D01*
X97240476Y-72040533D02*
X97240476Y-71945295D01*
X97240476Y-71945295D02*
X97288095Y-71850057D01*
X97288095Y-71850057D02*
X97335714Y-71802438D01*
X97335714Y-71802438D02*
X97430952Y-71754819D01*
X97430952Y-71754819D02*
X97669047Y-71754819D01*
X97669047Y-71754819D02*
X97811904Y-71802438D01*
X98145238Y-71754819D02*
X98383333Y-72754819D01*
X98383333Y-72754819D02*
X98573809Y-72040533D01*
X98573809Y-72040533D02*
X98764285Y-72754819D01*
X98764285Y-72754819D02*
X99002381Y-71754819D01*
X99907142Y-72754819D02*
X99335714Y-72754819D01*
X99621428Y-72754819D02*
X99621428Y-71754819D01*
X99621428Y-71754819D02*
X99526190Y-71897676D01*
X99526190Y-71897676D02*
X99430952Y-71992914D01*
X99430952Y-71992914D02*
X99335714Y-72040533D01*
X100526190Y-71754819D02*
X100621428Y-71754819D01*
X100621428Y-71754819D02*
X100716666Y-71802438D01*
X100716666Y-71802438D02*
X100764285Y-71850057D01*
X100764285Y-71850057D02*
X100811904Y-71945295D01*
X100811904Y-71945295D02*
X100859523Y-72135771D01*
X100859523Y-72135771D02*
X100859523Y-72373866D01*
X100859523Y-72373866D02*
X100811904Y-72564342D01*
X100811904Y-72564342D02*
X100764285Y-72659580D01*
X100764285Y-72659580D02*
X100716666Y-72707200D01*
X100716666Y-72707200D02*
X100621428Y-72754819D01*
X100621428Y-72754819D02*
X100526190Y-72754819D01*
X100526190Y-72754819D02*
X100430952Y-72707200D01*
X100430952Y-72707200D02*
X100383333Y-72659580D01*
X100383333Y-72659580D02*
X100335714Y-72564342D01*
X100335714Y-72564342D02*
X100288095Y-72373866D01*
X100288095Y-72373866D02*
X100288095Y-72135771D01*
X100288095Y-72135771D02*
X100335714Y-71945295D01*
X100335714Y-71945295D02*
X100383333Y-71850057D01*
X100383333Y-71850057D02*
X100430952Y-71802438D01*
X100430952Y-71802438D02*
X100526190Y-71754819D01*
D11*
%TO.C,SW6*%
X96015000Y-56015000D02*
X109985000Y-56015000D01*
X96015000Y-69985000D02*
X96015000Y-56015000D01*
X109985000Y-56015000D02*
X109985000Y-69985000D01*
X109985000Y-69985000D02*
X96015000Y-69985000D01*
%TO.C,SW1*%
X115015000Y-56015000D02*
X128985000Y-56015000D01*
X115015000Y-69985000D02*
X115015000Y-56015000D01*
X128985000Y-56015000D02*
X128985000Y-69985000D01*
X128985000Y-69985000D02*
X115015000Y-69985000D01*
%TO.C,SW4*%
X134015000Y-75015000D02*
X147985000Y-75015000D01*
X134015000Y-88985000D02*
X134015000Y-75015000D01*
X147985000Y-75015000D02*
X147985000Y-88985000D01*
X147985000Y-88985000D02*
X134015000Y-88985000D01*
%TO.C,J1*%
X93620000Y-40310000D02*
X95000000Y-40310000D01*
X93620000Y-41690000D02*
X93620000Y-40310000D01*
X93620000Y-42960000D02*
X93620000Y-50690000D01*
X93620000Y-42960000D02*
X96380000Y-42960000D01*
X93620000Y-50690000D02*
X96380000Y-50690000D01*
X96380000Y-42960000D02*
X96380000Y-50690000D01*
%TO.C,SW5*%
X115015000Y-75015000D02*
X128985000Y-75015000D01*
X115015000Y-88985000D02*
X115015000Y-75015000D01*
X128985000Y-75015000D02*
X128985000Y-88985000D01*
X128985000Y-88985000D02*
X115015000Y-88985000D01*
%TO.C,SW2*%
X134015000Y-56015000D02*
X147985000Y-56015000D01*
X134015000Y-69985000D02*
X134015000Y-56015000D01*
X147985000Y-56015000D02*
X147985000Y-69985000D01*
X147985000Y-69985000D02*
X134015000Y-69985000D01*
%TO.C,SW10*%
X95950000Y-75400000D02*
X96550000Y-75400000D01*
X96250000Y-75700000D02*
X95950000Y-75400000D01*
X96550000Y-75400000D02*
X96250000Y-75700000D01*
X97650000Y-73600000D02*
X97650000Y-85400000D01*
X101750000Y-73600000D02*
X97650000Y-73600000D01*
X101750000Y-85400000D02*
X97650000Y-85400000D01*
X103250000Y-79500000D02*
X104250000Y-79500000D01*
X103750000Y-79000000D02*
X103750000Y-80000000D01*
X105750000Y-73600000D02*
X109850000Y-73600000D01*
X109850000Y-73600000D02*
X109850000Y-76000000D01*
X109850000Y-78200000D02*
X109850000Y-80800000D01*
X109850000Y-83000000D02*
X109850000Y-85400000D01*
X109850000Y-85400000D02*
X105750000Y-85400000D01*
X106750000Y-79500000D02*
G75*
G02*
X100750000Y-79500000I-3000000J0D01*
G01*
X100750000Y-79500000D02*
G75*
G02*
X106750000Y-79500000I3000000J0D01*
G01*
%TD*%
M02*
